# xmcd
#
# Track frame offsets:
#	150
#	16852
#	35961
#	48906
#	63012
#	77483
#	89721
#	106853
#	125855
#	142051
#	156964
#	174567
#
# Disc length: 2558 seconds
#
# Revision: 1
# Processed by: cddbd v1.5.2PL0 Copyright (c) Steve Scherf et al.
# Submitted via: audiograbber 1.83.01
#
DISCID=a109fc0c
DTITLE=Hilde Heltberg - På bare ben
DYEAR=1983
DGENRE=Country
TTITLE0=Ingen som venter
TTITLE1=Når vi deler alt
TTITLE2=Min egen vei
TTITLE3=Drømmebilder
TTITLE4=Søvnløs natt
TTITLE5=Du skulle sett meg nå
TTITLE6=Bit for bit
TTITLE7=Med døra på gløtt
TTITLE8=Nå står jeg her
TTITLE9=Gamle Charlie
TTITLE10=Bare en dag
TTITLE11=Why don't you love me tonight
EXTD=
EXTT0=
EXTT1=
EXTT2=
EXTT3=
EXTT4=
EXTT5=
EXTT6=
EXTT7=
EXTT8=
EXTT9=
EXTT10=
EXTT11=
PLAYORDER=
